<svg width="47" height="47" viewBox="0 0 47 47" fill="none" xmlns="http://www.w3.org/2000/svg">
<rect x="0.714844" y="0.589111" width="45.67" height="45.6684" rx="17" fill="#53B175"/>
<path d="M32.0498 23.4233C32.0498 23.7992 31.9057 24.1625 31.6362 24.4256C31.3731 24.6949 31.0096 24.8452 30.6337 24.8452H24.9691V30.5077C24.9691 30.8835 24.8187 31.2468 24.5493 31.5099C24.2861 31.773 23.9289 31.9233 23.5529 31.9233C23.177 31.9233 22.8135 31.773 22.5504 31.5099C22.2809 31.2468 22.1305 30.8835 22.1305 30.5077V24.8452H16.4659C16.09 24.8452 15.7265 24.6949 15.4634 24.4256C15.2002 24.1625 15.0498 23.7992 15.0498 23.4233C15.0498 23.0475 15.2002 22.6905 15.4634 22.4211C15.7265 22.158 16.09 22.0077 16.4659 22.0077H22.1305V16.3452C22.1305 15.9694 22.2809 15.6061 22.5504 15.343C22.8135 15.0737 23.177 14.9233 23.5529 14.9233C23.9289 14.9233 24.2861 15.0737 24.5493 15.343C24.8187 15.6061 24.9691 15.9694 24.9691 16.3452V22.0077H30.6337C31.0096 22.0077 31.3731 22.158 31.6362 22.4211C31.9057 22.6905 32.0498 23.0475 32.0498 23.4233Z" fill="white"/>
</svg>
