<svg width="23" height="21" viewBox="0 0 23 21" fill="none" xmlns="http://www.w3.org/2000/svg">
<path d="M8.74205 20.5175C8.0935 20.5175 7.47151 20.2599 7.01291 19.8013C6.55432 19.3427 6.29668 18.7207 6.29668 18.0721C6.29668 17.4236 6.55432 16.8016 7.01291 16.343C7.47151 15.8844 8.0935 15.6268 8.74205 15.6268C9.3906 15.6268 10.0126 15.8844 10.4712 16.343C10.9298 16.8016 11.1874 17.4236 11.1874 18.0721C11.1874 18.7207 10.9298 19.3427 10.4712 19.8013C10.0126 20.2599 9.3906 20.5175 8.74205 20.5175ZM17.3008 20.5175C16.6523 20.5175 16.0303 20.2599 15.5717 19.8013C15.1131 19.3427 14.8555 18.7207 14.8555 18.0721C14.8555 17.4236 15.1131 16.8016 15.5717 16.343C16.0303 15.8844 16.6523 15.6268 17.3008 15.6268C17.9494 15.6268 18.5714 15.8844 19.03 16.343C19.4885 16.8016 19.7462 17.4236 19.7462 18.0721C19.7462 18.7207 19.4885 19.3427 19.03 19.8013C18.5714 20.2599 17.9494 20.5175 17.3008 20.5175ZM1.35949 3.30581C1.05426 3.29596 0.764831 3.16779 0.552399 2.9484C0.339966 2.729 0.221191 2.43559 0.221191 2.1302C0.221191 1.82481 0.339966 1.5314 0.552399 1.312C0.764831 1.09261 1.05426 0.964435 1.35949 0.95459L2.7668 0.95459C3.86966 0.95459 4.82335 1.71999 5.063 2.79595L6.59502 9.69432C6.83466 10.7703 7.78835 11.5357 8.89121 11.5357H18.076L19.8391 4.4808H8.41315C8.11079 4.46701 7.82539 4.33719 7.6163 4.11834C7.40722 3.8995 7.29054 3.60848 7.29054 3.30581C7.29054 3.00314 7.40722 2.71212 7.6163 2.49327C7.82539 2.27443 8.11079 2.14461 8.41315 2.13081H19.8391C20.1965 2.1307 20.5493 2.21209 20.8705 2.36879C21.1918 2.52548 21.4731 2.75335 21.6931 3.03509C21.913 3.31682 22.0659 3.64499 22.14 3.99466C22.214 4.34433 22.2074 4.70629 22.1206 5.05302L20.3575 12.1054C20.2304 12.6143 19.9368 13.0661 19.5234 13.3889C19.11 13.7117 18.6005 13.887 18.076 13.8869H8.89121C7.82112 13.887 6.78297 13.5222 5.94823 12.8526C5.1135 12.1831 4.53209 11.2488 4.30004 10.2042L2.7668 3.30581H1.35949Z" fill="#181725"/>
</svg>
