<svg width="29" height="19" viewBox="0 0 29 19" fill="none" xmlns="http://www.w3.org/2000/svg">
<path d="M18.6759 14.2368C19.4639 14.2368 20.2441 14.0816 20.972 13.7801C21.7 13.4786 22.3614 13.0366 22.9186 12.4795C23.4757 11.9223 23.9177 11.2609 24.2192 10.5329C24.5207 9.80498 24.6759 9.02476 24.6759 8.23683C24.6759 7.4489 24.5207 6.66868 24.2192 5.94073C23.9177 5.21278 23.4757 4.55134 22.9186 3.99419C22.3614 3.43704 21.7 2.99508 20.972 2.69355C20.2441 2.39203 19.4639 2.23683 18.6759 2.23683C17.0846 2.23683 15.5585 2.86897 14.4333 3.99419C13.3081 5.11941 12.6759 6.64553 12.6759 8.23683C12.6759 9.82813 13.3081 11.3543 14.4333 12.4795C15.5585 13.6047 17.0846 14.2368 18.6759 14.2368ZM24.9959 13.1428L28.5759 16.7228C28.6714 16.8151 28.7475 16.9255 28.7998 17.0476C28.8521 17.1696 28.8796 17.3009 28.8807 17.4336C28.8817 17.5664 28.8563 17.6981 28.806 17.8209C28.7556 17.9438 28.6813 18.0554 28.5873 18.1492C28.4933 18.2431 28.3816 18.3172 28.2587 18.3674C28.1358 18.4176 28.0041 18.4428 27.8713 18.4416C27.7385 18.4403 27.6073 18.4127 27.4854 18.3602C27.3634 18.3077 27.2531 18.2314 27.1609 18.1358L23.5809 14.5558C21.9734 15.8037 19.9507 16.392 17.9247 16.201C15.8986 16.0101 14.0215 15.0541 12.6755 13.5279C11.3294 12.0016 10.6156 10.0198 10.6793 7.98575C10.7431 5.95173 11.5796 4.01845 13.0186 2.57948C14.4575 1.1405 16.3908 0.303998 18.4248 0.240257C20.4589 0.176516 22.4407 0.890328 23.967 2.23638C25.4932 3.58244 26.4491 5.45955 26.6401 7.48559C26.8311 9.51163 26.2428 11.5343 24.9949 13.1418L24.9959 13.1428Z" fill="#181725"/>
<rect x="0.531372" y="0.236328" width="8.85499" height="2.39923" rx="1.19961" fill="#181725"/>
<rect x="0.531372" y="7.67432" width="6.46414" height="2.39923" rx="1.19961" fill="#181725"/>
<rect x="0.531372" y="15.1133" width="8.85499" height="2.39923" rx="1.19961" fill="#181725"/>
</svg>
