<svg width="24" height="20" viewBox="0 0 24 20" fill="none" xmlns="http://www.w3.org/2000/svg">
<path d="M3.90028 9.0092L11.7244 16.8333L19.5485 9.0092C20.2402 8.31745 20.6289 7.37924 20.6289 6.40096C20.6289 5.42269 20.2402 4.48447 19.5485 3.79273C19.206 3.45021 18.7993 3.17851 18.3518 2.99314C17.9043 2.80777 17.4246 2.71236 16.9402 2.71236C15.962 2.71236 15.0238 3.10098 14.332 3.79273L11.7244 6.40035L9.11676 3.79396C8.42325 3.11149 7.48816 2.73071 6.51517 2.73455C5.54219 2.7384 4.61014 3.12656 3.92205 3.81449C3.23395 4.50242 2.84557 5.43438 2.84149 6.40737C2.83742 7.38035 3.21798 8.31553 3.90028 9.0092ZM10.8552 2.05308L11.7244 2.92229L12.5936 2.05308C13.1635 1.47816 13.8413 1.02147 14.5882 0.709226C15.3351 0.39698 16.1363 0.235331 16.9458 0.233559C17.7553 0.231786 18.5572 0.389925 19.3055 0.698896C20.0537 1.00787 20.7336 1.46159 21.306 2.034C21.8784 2.60642 22.3321 3.28627 22.6411 4.0345C22.9501 4.78274 23.1082 5.58464 23.1064 6.39416C23.1047 7.20368 22.943 8.00488 22.6308 8.75175C22.3185 9.49863 21.8618 10.1765 21.2869 10.7464L12.5948 19.4397C12.4806 19.554 12.345 19.6447 12.1958 19.7066C12.0465 19.7684 11.8866 19.8003 11.725 19.8003C11.5634 19.8003 11.4034 19.7684 11.2542 19.7066C11.1049 19.6447 10.9694 19.554 10.8552 19.4397L2.16187 10.7476C1.57913 10.1795 1.11499 9.50142 0.796373 8.75257C0.477756 8.00372 0.311004 7.19906 0.30579 6.38527C0.300576 5.57148 0.457004 4.76475 0.765999 4.01188C1.07499 3.25901 1.53041 2.57499 2.10582 1.9995C2.68123 1.42401 3.36518 0.968497 4.11801 0.659395C4.87083 0.350294 5.67754 0.193752 6.49134 0.198851C7.30513 0.20395 8.10981 0.370588 8.85871 0.689099C9.6076 1.00761 10.2858 1.47165 10.8539 2.05431L10.8552 2.05308Z" fill="#181725"/>
</svg>
