<svg width="16" height="19" viewBox="0 0 16 19" fill="none" xmlns="http://www.w3.org/2000/svg">
<path fill-rule="evenodd" clip-rule="evenodd" d="M10.5463 1.30771C9.63118 0.912527 8.64617 0.704559 7.64937 0.696063C6.64587 0.680524 5.6497 0.869348 4.7215 1.25104C3.79329 1.63273 2.95246 2.19931 2.25018 2.91629C0.824292 4.36029 0.0172245 6.3031 0.000266042 8.33238C-0.0166914 10.3617 0.757794 12.3177 2.15935 13.7853L6.76128 18.5487C6.8539 18.6459 6.96498 18.7236 7.08802 18.7774C7.21105 18.8311 7.34357 18.8597 7.47781 18.8616C7.61186 18.8646 7.74502 18.8392 7.86853 18.787C7.99204 18.7348 8.10308 18.657 8.19434 18.5588L12.877 13.8661C14.3043 12.4234 15.1131 10.4813 15.132 8.45201C15.1508 6.42272 14.3781 4.46596 12.9779 2.99703C12.2883 2.27728 11.4615 1.70289 10.5463 1.30771ZM7.48762 11.0057C8.83666 11.0057 9.93027 9.91209 9.93027 8.56305C9.93027 7.21401 8.83666 6.1204 7.48762 6.1204C6.13858 6.1204 5.04497 7.21402 5.04497 8.56305C5.04497 9.91209 6.13858 11.0057 7.48762 11.0057Z" fill="#4C4F4D"/>
</svg>
