<svg width="48" height="56" viewBox="0 0 48 56" fill="none" xmlns="http://www.w3.org/2000/svg">
<path fill-rule="evenodd" clip-rule="evenodd" d="M32.6137 4.57664C32.8526 2.44299 31.3399 0.516338 29.2063 0.277497C27.0726 0.0227336 25.146 1.55132 24.9071 3.68496C24.6205 6.12114 25.0186 9.035 25.5281 12.0285C26.9452 12.4584 28.3146 13.0794 29.5884 13.8118C30.9578 10.5795 32.2953 7.37904 32.6137 4.57664ZM47.597 13.9392C46.7531 11.9648 44.4602 11.0731 42.4858 11.917C39.8904 13.0475 37.1995 15.2608 34.4926 17.5377C35.5117 18.5409 36.467 19.6714 37.2791 20.8974C40.3522 20.5153 43.2979 20.0535 45.5748 19.0663C47.5493 18.1906 48.4569 15.8977 47.597 13.9392ZM41.0528 3.52574C39.3331 2.25192 36.8969 2.60222 35.6231 4.32187C33.6805 6.9332 32.3749 10.8343 30.9578 14.6398C31.4354 14.9583 31.8813 15.2767 32.3112 15.6111C32.6296 15.8659 32.964 16.1365 33.2984 16.4072C36.5466 13.9551 39.9223 11.5667 41.8648 8.95539C43.1387 7.23573 42.7724 4.79955 41.0528 3.52574Z" fill="#53B175"/>
<path d="M33.6649 34.7025C32.4706 35.9922 31.1968 37.1864 29.8434 38.3488C27.9486 39.9888 26.0219 41.5811 24.0634 43.1097C21.9616 41.82 20.449 41.1671 20.1942 41.5015C19.9713 41.804 20.847 42.9186 22.4234 44.3676C17.1371 48.3005 11.5482 51.7717 5.5453 54.6218C4.60586 55.0677 3.61865 55.3861 2.64736 55.7364C2.3926 55.832 2.12191 55.832 2.01045 55.8479C0.481868 56.023 0.0201089 55.609 0.0837999 54.2078C0.274873 49.845 1.62831 45.7529 3.02951 41.6767C3.41165 40.5621 3.80972 39.4475 4.22371 38.3329C6.34144 39.6226 7.8541 40.2914 8.10886 39.957C8.37955 39.5908 7.10573 38.1259 4.97208 36.2948C6.50066 32.3459 8.2044 28.4608 10.2107 24.7349C14.2232 27.7124 17.7899 29.6709 18.188 29.1295C18.586 28.5882 15.6403 25.7061 11.58 22.6967L11.4049 22.5694C12.1055 21.3752 12.8379 20.181 13.6181 19.0186C14.5894 17.5537 15.7836 16.2162 16.9619 14.9105C18.5383 13.175 20.5764 12.5858 22.8533 13.0953C30.1459 14.7195 35.2094 18.9071 37.5978 26.0883C38.0755 27.5532 37.6455 28.9862 36.8972 30.3078C36.3876 31.1995 35.8303 32.0434 35.2094 32.8395C31.3561 30.0212 28.0123 28.206 27.6301 28.7155C27.2639 29.2251 29.923 31.8523 33.6649 34.7025Z" fill="#F3603F"/>
</svg>
