<svg width="195" height="47" viewBox="0 0 195 47" fill="none" xmlns="http://www.w3.org/2000/svg">
<path d="M19.3962 8.40234C13.6253 8.40234 9.87509 10.7143 7.59949 15.1017H7.47206V12.371C7.47206 10.4049 5.87004 8.82105 3.90392 8.82105C1.93781 8.82105 0.353989 10.4049 0.353989 12.371V42.5727C0.353989 44.5388 1.93781 46.1409 3.90392 46.1409H4.24981C6.21593 46.1409 7.81795 44.5388 7.81795 42.5727V24.5864C7.81795 18.7062 11.1858 14.7922 16.8111 14.7922C22.2725 14.7922 24.894 17.9599 24.894 23.6215V42.5727C24.894 44.5388 26.4778 46.1409 28.444 46.1409H28.7899C30.756 46.1409 32.3398 44.5388 32.3398 42.5727V22.2198C32.3398 13.6271 27.643 8.40234 19.3962 8.40234Z" fill="white"/>
<path d="M55.3688 8.32959C44.9375 8.32959 38.1289 15.9392 38.1289 27.6085C38.1289 39.2959 44.8647 46.5778 55.6783 46.5778C62.3777 46.5778 67.9119 43.6105 70.406 38.9864C71.3344 37.2934 70.0601 35.1998 68.1304 35.1998H66.2371C65.2905 35.1998 64.4712 35.746 63.9797 36.5652C62.5415 39.0411 59.5195 40.5338 55.824 40.5338C49.7072 40.5338 45.6475 36.2739 45.6475 29.8112V29.3743H69.4958C70.9157 29.3743 72.0808 28.2092 72.0808 26.7892V26.7528C72.0808 15.4477 65.6181 8.32959 55.3688 8.32959ZM45.6839 24.0767C46.1026 18.3422 49.9802 14.41 55.3506 14.41C60.7757 14.41 64.453 18.2694 64.6169 24.0767H45.6839Z" fill="white"/>
<path d="M106.797 33.5978H104.813C103.739 33.5978 102.811 34.2714 102.41 35.2727C101.118 38.5677 98.1683 40.3336 93.9812 40.3336C87.9918 40.3336 83.9504 35.5093 83.9504 27.481C83.9504 19.6348 87.9372 14.6284 93.9448 14.6284C98.2776 14.6284 101.172 16.7766 102.355 19.835C102.756 20.8545 103.684 21.5645 104.795 21.5645H106.779C108.509 21.5645 109.801 19.8714 109.237 18.233C107.325 12.6077 101.864 8.32959 93.872 8.32959C83.3314 8.32959 76.3772 15.8664 76.3772 27.481C76.3772 39.2959 83.3496 46.5778 93.9448 46.5778C101.536 46.5778 107.18 42.8641 109.255 36.9839C109.838 35.3273 108.563 33.5978 106.797 33.5978Z" fill="white"/>
<path d="M129.153 40.279C129.025 40.2608 128.88 40.2426 128.752 40.2426C126.295 39.9513 125.148 38.4221 125.148 35.5457V14.7013H129.353C130.991 14.7013 132.302 13.3723 132.302 11.7521C132.302 10.1319 130.991 8.82111 129.353 8.82111H125.148V4.14249C125.148 3.12302 124.729 2.19457 124.055 1.521C123.382 0.847421 122.472 0.428711 121.434 0.428711C119.395 0.428711 117.738 2.10355 117.738 4.14249V8.82111H115.517C113.897 8.82111 112.568 10.1319 112.568 11.7521C112.568 13.3723 113.897 14.7013 115.517 14.7013H117.738V36.3103C117.738 43.5194 120.615 46.3776 128.079 46.3776C128.097 46.3776 128.115 46.3776 128.115 46.3776C128.971 46.3776 129.754 46.1227 130.409 45.6676C130.427 45.6676 130.445 45.6494 130.445 45.6494C131.21 45.1032 131.72 44.2112 131.72 43.2099C131.72 41.7172 130.609 40.461 129.153 40.279Z" fill="white"/>
<path d="M153.365 8.32959C147.54 8.32959 142.734 10.6962 140.276 14.3554C139.875 14.9743 139.675 15.6479 139.675 16.3033C139.675 18.1238 141.132 19.8168 143.189 19.8168C144.39 19.8168 145.537 19.1796 146.101 18.1238C147.303 15.8664 149.87 14.4828 153.165 14.4828C158.153 14.4828 160.993 16.8312 160.993 21.0911V21.5463C160.993 22.9116 159.937 24.0403 158.572 24.1131L150.926 24.55C141.714 25.1326 136.671 28.9192 136.671 35.4547C136.671 42.1177 141.823 46.505 149.287 46.505C154.366 46.505 159.009 43.9745 161.066 39.9149H161.23V42.5728C161.23 43.5558 161.63 44.4479 162.267 45.1032C162.923 45.7404 163.815 46.1409 164.798 46.1409C166.764 46.1409 168.348 44.5389 168.348 42.5728V20.545C168.348 13.1539 162.468 8.32959 153.365 8.32959ZM160.993 32.1232C160.993 37.0203 156.806 40.5703 151.272 40.5703C146.975 40.5703 144.19 38.5131 144.19 35.3091C144.19 32.014 146.848 30.1207 151.927 29.8112L160.993 29.1923V32.1232Z" fill="white"/>
<path d="M192.105 8.43896C187.699 8.43896 184.277 10.9512 183.094 15.1019H182.966V12.3712C182.966 10.4051 181.364 8.82127 179.416 8.82127C177.45 8.82127 175.848 10.4051 175.848 12.3712V42.4091C175.848 43.4286 176.267 44.3752 176.94 45.0488C177.614 45.7224 178.542 46.1411 179.58 46.1411C181.637 46.1411 183.312 44.4662 183.312 42.4091V23.8766C183.312 18.6154 186.407 15.2111 191.322 15.2111C191.522 15.2111 191.741 15.2111 191.941 15.2293C193.47 15.284 194.708 14.0278 194.708 12.4986V11.0605C194.708 9.62228 193.543 8.43896 192.105 8.43896Z" fill="white"/>
</svg>
