<svg width="55" height="65" viewBox="0 0 55 65" fill="none" xmlns="http://www.w3.org/2000/svg">
<path fill-rule="evenodd" clip-rule="evenodd" d="M37.4906 5.64232C37.7637 3.20288 36.0343 1.0001 33.5948 0.72703C31.1554 0.435753 28.9526 2.18341 28.6795 4.62285C28.3518 7.40818 28.807 10.7397 29.3895 14.1622C31.0097 14.6537 32.5753 15.3637 34.0317 16.2011C35.5973 12.5055 37.1265 8.84636 37.4906 5.64232ZM54.6213 16.3467C53.6565 14.0893 51.035 13.0699 48.7776 14.0347C45.8102 15.3273 42.7336 17.8577 39.6388 20.461C40.8039 21.6079 41.8962 22.9005 42.8246 24.3022C46.3382 23.8653 49.706 23.3374 52.3093 22.2087C54.5667 21.2074 55.6044 18.5859 54.6213 16.3467ZM47.1392 4.4408C45.1731 2.98442 42.3877 3.38493 40.9313 5.35104C38.7104 8.33663 37.2176 12.7968 35.5973 17.1477C36.1435 17.5118 36.6532 17.8759 37.1447 18.2582C37.5088 18.5495 37.8911 18.859 38.2734 19.1685C41.9872 16.3649 45.8466 13.6342 48.0676 10.6486C49.524 8.68252 49.1053 5.89719 47.1392 4.4408Z" fill="white"/>
<path d="M38.6921 40.0855C37.3268 41.5601 35.8704 42.9255 34.323 44.2544C32.1566 46.1295 29.9538 47.95 27.7147 49.6977C25.3116 48.2231 23.5822 47.4767 23.2909 47.859C23.036 48.2049 24.0373 49.4792 25.8396 51.1358C19.7956 55.6324 13.4057 59.6011 6.54249 62.8597C5.46841 63.3694 4.33971 63.7335 3.22922 64.134C2.93794 64.2433 2.62846 64.2433 2.50103 64.2615C0.753371 64.4617 0.225432 63.9884 0.298252 62.3864C0.516709 57.3983 2.06412 52.7196 3.66614 48.0592C4.10305 46.7849 4.55817 45.5106 5.03149 44.2362C7.45273 45.7108 9.18218 46.4754 9.47346 46.0931C9.78294 45.6744 8.32656 43.9996 5.88712 41.906C7.63478 37.3912 9.58269 32.9493 11.8765 28.6893C16.4641 32.0936 20.542 34.3328 20.9971 33.7139C21.4522 33.0949 18.0843 29.7998 13.4421 26.3591L13.2419 26.2135C14.0429 24.8481 14.8803 23.4828 15.7723 22.1538C16.8828 20.479 18.2482 18.9498 19.5953 17.457C21.3976 15.4727 23.7278 14.7991 26.3311 15.3816C34.6689 17.2385 40.458 22.0264 43.1887 30.2367C43.7349 31.9116 43.2433 33.55 42.3877 35.061C41.8052 36.0805 41.168 37.0453 40.458 37.9556C36.0524 34.7333 32.2294 32.658 31.7925 33.2405C31.3738 33.8231 34.414 36.8269 38.6921 40.0855Z" fill="white"/>
</svg>
