<svg width="19" height="19" viewBox="0 0 19 19" fill="none" xmlns="http://www.w3.org/2000/svg">
<path d="M8.70656 14.5715C9.49449 14.5715 10.2747 14.4164 11.0027 14.1148C11.7306 13.8133 12.392 13.3713 12.9492 12.8142C13.5064 12.257 13.9483 11.5956 14.2498 10.8676C14.5514 10.1397 14.7066 9.35948 14.7066 8.57155C14.7066 7.78362 14.5514 7.0034 14.2498 6.27545C13.9483 5.54749 13.5064 4.88606 12.9492 4.32891C12.392 3.77176 11.7306 3.3298 11.0027 3.02827C10.2747 2.72674 9.49449 2.57155 8.70656 2.57155C7.11526 2.57155 5.58914 3.20369 4.46392 4.32891C3.3387 5.45413 2.70656 6.98025 2.70656 8.57155C2.70656 10.1628 3.3387 11.689 4.46392 12.8142C5.58914 13.9394 7.11526 14.5715 8.70656 14.5715ZM15.0266 13.4775L18.6066 17.0575C18.702 17.1499 18.7781 17.2603 18.8304 17.3823C18.8827 17.5043 18.9102 17.6356 18.9113 17.7684C18.9124 17.9011 18.887 18.0328 18.8366 18.1557C18.7862 18.2785 18.7119 18.3901 18.6179 18.4839C18.524 18.5778 18.4123 18.6519 18.2893 18.7021C18.1664 18.7523 18.0347 18.7775 17.9019 18.7763C17.7692 18.775 17.638 18.7474 17.516 18.6949C17.394 18.6424 17.2837 18.5661 17.1916 18.4705L13.6116 14.8905C12.004 16.1384 9.98135 16.7267 7.95531 16.5357C5.92927 16.3448 4.05216 15.3889 2.70611 13.8626C1.36005 12.3364 0.646243 10.3545 0.709984 8.32047C0.773725 6.28645 1.61023 4.35317 3.0492 2.91419C4.48818 1.47522 6.42146 0.638715 8.45548 0.574974C10.4895 0.511233 12.4714 1.22504 13.9976 2.5711C15.5239 3.91715 16.4798 5.79426 16.6708 7.8203C16.8617 9.84634 16.2734 11.869 15.0256 13.4765L15.0266 13.4775Z" fill="#181B19"/>
</svg>
