<svg width="25" height="25" viewBox="0 0 25 25" fill="none" xmlns="http://www.w3.org/2000/svg">
<path d="M9.70606 9.75358C10.2361 10.2286 10.9381 10.5176 11.7061 10.5176H13.7061C14.4442 10.5186 15.1566 10.2465 15.7061 9.75358H9.70606ZM9.70606 9.75358C9.15659 10.2465 8.44419 10.5186 7.70606 10.5176L9.70606 9.75358ZM8.75606 4.51758V4.46758H8.70606H5.70606C5.42758 4.46758 5.16051 4.5782 4.9636 4.77512C4.76668 4.97203 4.65606 5.2391 4.65606 5.51758V7.51758C4.65606 7.79606 4.76668 8.06313 4.9636 8.26004C5.16051 8.45695 5.42758 8.56758 5.70606 8.56758H7.70606C7.98453 8.56758 8.25161 8.45695 8.44852 8.26004C8.64543 8.06313 8.75606 7.79606 8.75606 7.51758V4.51758ZM5.71606 10.4676H5.66606V10.5176V20.4826V20.5326H5.71606H7.70606H7.75606V20.4826V15.5176C7.75606 15.0004 7.9615 14.5044 8.3272 14.1387C8.6929 13.773 9.18889 13.5676 9.70606 13.5676H11.7061C12.2232 13.5676 12.7192 13.773 13.0849 14.1387C13.4506 14.5044 13.6561 15.0004 13.6561 15.5176V20.4826V20.5326H13.7061H19.7191H19.7691V20.4826V10.5176V10.4676H19.7191H17.7061C16.9508 10.4676 16.2606 10.1834 15.7394 9.71634L15.706 9.68642L15.6727 9.71636C15.1324 10.201 14.4319 10.4686 13.7061 10.4676H13.7061H11.7061C10.9508 10.4676 10.2606 10.1834 9.73943 9.71634L9.70604 9.68642L9.67267 9.71636C9.1324 10.201 8.43191 10.4686 7.70613 10.4676H7.70606H5.71606ZM3.71423 9.6947C3.41779 9.42393 3.17976 9.09524 3.01496 8.72876C2.84373 8.34799 2.75547 7.93515 2.75606 7.51765V7.51758V5.51758C2.75606 4.73519 3.06686 3.98485 3.62009 3.43161C4.17332 2.87838 4.92367 2.56758 5.70606 2.56758H19.7061C20.4884 2.56758 21.2388 2.87838 21.792 3.43161C22.3453 3.98485 22.6561 4.73519 22.6561 5.51758V7.51758C22.6561 8.38491 22.2824 9.16561 21.6855 9.7055L21.6691 9.72038V9.74258V20.4826C21.6691 20.9998 21.4636 21.4957 21.0979 21.8614C20.7322 22.2271 20.2362 22.4326 19.7191 22.4326H12.0791V22.4317L12.0698 22.4334C11.9499 22.4561 11.8281 22.4676 11.706 22.4676H9.70606C9.58403 22.4676 9.46226 22.4561 9.34235 22.4334L9.34251 22.4326H9.33306H5.71706C5.19989 22.4326 4.7039 22.2271 4.3382 21.8614C3.9725 21.4957 3.76706 20.9998 3.76706 20.4826V9.76258V9.64188L3.71423 9.6947ZM11.7561 15.5176V15.4676H11.7061H9.70606H9.65606V15.5176V20.4826V20.5326H9.70606H11.7061V20.4836H11.7561V20.4826V20.4326V15.5176ZM14.7561 4.51758V4.46758H14.7061H10.7061H10.6561V4.51758V7.51758C10.6561 7.79606 10.7667 8.06313 10.9636 8.26004C11.1605 8.45695 11.4276 8.56758 11.7061 8.56758H13.7061C13.9845 8.56758 14.2516 8.45695 14.4485 8.26004C14.6454 8.06313 14.7561 7.79606 14.7561 7.51758V4.51758ZM16.7061 4.46758H16.6561V4.51758V7.51758C16.6561 7.79606 16.7667 8.06313 16.9636 8.26004C17.1605 8.45695 17.4276 8.56758 17.7061 8.56758H19.7061C19.9845 8.56758 20.2516 8.45695 20.4485 8.26004C20.6454 8.06313 20.7561 7.79606 20.7561 7.51758V5.51758C20.7561 5.2391 20.6454 4.97203 20.4485 4.77512C20.2516 4.5782 19.9845 4.46758 19.7061 4.46758H16.7061ZM16.7061 13.5676H17.7061C17.958 13.5676 18.1996 13.6677 18.3778 13.8458C18.556 14.024 18.6561 14.2656 18.6561 14.5176V17.5176C18.6561 17.7695 18.556 18.0112 18.3778 18.1893C18.1996 18.3675 17.958 18.4676 17.7061 18.4676H16.7061C16.4541 18.4676 16.2125 18.3675 16.0343 18.1893C15.8561 18.0112 15.7561 17.7695 15.7561 17.5176V14.5176C15.7561 14.2656 15.8561 14.024 16.0343 13.8458C16.2125 13.6677 16.4541 13.5676 16.7061 13.5676Z" fill="#53B175" stroke="white" stroke-width="0.1"/>
</svg>
